<?xml version="1.0" encoding="UTF-8" standalone="no"?>
<!DOCTYPE svg PUBLIC "-//W3C//DTD SVG 1.1//EN"
 "http://www.w3.org/Graphics/SVG/1.1/DTD/svg11.dtd">
<!-- Generated by graphviz version 12.2.1 (20241206.2353)
 -->
<!-- Title: OptiGridDeployment Pages: 1 -->
<svg width="1194pt" height="1472pt"
 viewBox="0.00 0.00 1193.59 1472.38" xmlns="http://www.w3.org/2000/svg" xmlns:xlink="http://www.w3.org/1999/xlink">
<g id="graph0" class="graph" transform="scale(1 1) rotate(0) translate(21.6 1450.78)">
<title>OptiGridDeployment</title>
<polygon fill="#ffffff" stroke="none" points="-21.6,21.6 -21.6,-1450.78 1171.99,-1450.78 1171.99,21.6 -21.6,21.6"/>
<text text-anchor="middle" x="359.75" y="-1404.28" font-family="Arial" font-size="22.00">OptiGrid | Deployment diagram</text>
<text text-anchor="middle" x="359.75" y="-1378.78" font-family="Arial" font-size="22.00">Configured production target / repository evidence, 03 Sep 2026</text>
<text text-anchor="middle" x="359.75" y="-1353.28" font-family="Arial" font-size="22.00">Coreflow | Source: production Compose + Terraform | Revision: 26037c1</text>
<g id="clust1" class="cluster">
<title>cluster_frontend</title>
<path fill="#ffffff" stroke="#c28433" stroke-dasharray="5,2" d="M356,-1074.36C356,-1074.36 657,-1074.36 657,-1074.36 663,-1074.36 669,-1080.36 669,-1086.36 669,-1086.36 669,-1207.77 669,-1207.77 669,-1213.77 663,-1219.77 657,-1219.77 657,-1219.77 356,-1219.77 356,-1219.77 350,-1219.77 344,-1213.77 344,-1207.77 344,-1207.77 344,-1086.36 344,-1086.36 344,-1080.36 350,-1074.36 356,-1074.36"/>
<text text-anchor="middle" x="506.88" y="-1203.42" font-family="Arial" font-size="13.00" fill="#835413">FRONTEND HOSTING: UNRESOLVED</text>
<text text-anchor="middle" x="506.88" y="-1188.42" font-family="Arial" font-size="13.00" fill="#835413">Production location and instance count not declared</text>
</g>
<g id="clust2" class="cluster">
<title>cluster_aws</title>
<path fill="#ffffff" stroke="#5577a0" stroke-width="1.7" d="M20,-8C20,-8 738,-8 738,-8 744,-8 750,-14 750,-20 750,-20 750,-996.36 750,-996.36 750,-1002.36 744,-1008.36 738,-1008.36 738,-1008.36 20,-1008.36 20,-1008.36 14,-1008.36 8,-1002.36 8,-996.36 8,-996.36 8,-20 8,-20 8,-14 14,-8 20,-8"/>
<text text-anchor="middle" x="225.62" y="-990.11" font-family="Arial" font-size="15.00" fill="#23496e">TRUST BOUNDARY: PUBLIC INTERNET / AWS ESTATE</text>
<text text-anchor="middle" x="225.62" y="-972.11" font-family="Arial" font-size="15.00" fill="#23496e">AWS production target | region default: us&#45;east&#45;1 | default VPC</text>
</g>
<g id="clust3" class="cluster">
<title>cluster_ec2</title>
<path fill="#f7faff" stroke="#94acc7" stroke-width="1.7" d="M28,-16C28,-16 730,-16 730,-16 736,-16 742,-22 742,-28 742,-28 742,-944.36 742,-944.36 742,-950.36 736,-956.36 730,-956.36 730,-956.36 28,-956.36 28,-956.36 22,-956.36 16,-950.36 16,-944.36 16,-944.36 16,-28 16,-28 16,-22 22,-16 28,-16"/>
<text text-anchor="middle" x="256.12" y="-940.01" font-family="Arial" font-size="13.00" fill="#334d68">&lt;&lt;infrastructure node&gt;&gt; EC2 x1 | Ubuntu 24.04 | Docker Engine + Compose</text>
<text text-anchor="middle" x="256.12" y="-925.01" font-family="Arial" font-size="13.00" fill="#334d68">FAILURE DOMAIN: one host, one subnet; availability&#45;zone name not declared</text>
<text text-anchor="middle" x="256.12" y="-910.01" font-family="Arial" font-size="13.00" fill="#334d68">One shared Docker network; no enforced app / data tier boundary</text>
</g>
<g id="clust4" class="cluster">
<title>cluster_external</title>
<path fill="#ffffff" stroke="#9a8bb5" stroke-dasharray="5,2" d="M770,-403.99C770,-403.99 1081,-403.99 1081,-403.99 1087,-403.99 1093,-409.99 1093,-415.99 1093,-415.99 1093,-715.7 1093,-715.7 1093,-721.7 1087,-727.7 1081,-727.7 1081,-727.7 770,-727.7 770,-727.7 764,-727.7 758,-721.7 758,-715.7 758,-715.7 758,-415.99 758,-415.99 758,-409.99 764,-403.99 770,-403.99"/>
<text text-anchor="middle" x="925.75" y="-711.35" font-family="Arial" font-size="13.00" fill="#65527f">TRUST BOUNDARIES: EXTERNAL PROVIDERS</text>
<text text-anchor="middle" x="925.75" y="-696.35" font-family="Arial" font-size="13.00" fill="#65527f">Separate services; provider regions / HA not declared</text>
</g>
<!-- browser -->
<g id="node1" class="node">
<title>browser</title>
<path fill="#f1f5f9" stroke="#94a3b8" stroke-width="1.2" d="M575.15,-1344.68C575.15,-1344.68 436.85,-1344.68 436.85,-1344.68 430.85,-1344.68 424.85,-1338.68 424.85,-1332.68 424.85,-1332.68 424.85,-1293.77 424.85,-1293.77 424.85,-1287.77 430.85,-1281.77 436.85,-1281.77 436.85,-1281.77 575.15,-1281.77 575.15,-1281.77 581.15,-1281.77 587.15,-1287.77 587.15,-1293.77 587.15,-1293.77 587.15,-1332.68 587.15,-1332.68 587.15,-1338.68 581.15,-1344.68 575.15,-1344.68"/>
<text text-anchor="middle" x="506" y="-1323.2" font-family="Arial" font-size="12.00" fill="#14283d">&lt;&lt;device&gt;&gt;</text>
<text text-anchor="middle" x="506" y="-1308.95" font-family="Arial" font-size="12.00" fill="#14283d">User browser</text>
<text text-anchor="middle" x="506" y="-1294.7" font-family="Arial" font-size="12.00" fill="#14283d">Manager / admin / viewer</text>
</g>
<!-- frontend -->
<g id="node2" class="node">
<title>frontend</title>
<path fill="#fff8e9" stroke="#c28433" stroke-width="1.2" stroke-dasharray="5,2" d="M611.15,-1173.77C611.15,-1173.77 400.85,-1173.77 400.85,-1173.77 394.85,-1173.77 388.85,-1167.77 388.85,-1161.77 388.85,-1161.77 388.85,-1094.36 388.85,-1094.36 388.85,-1088.36 394.85,-1082.36 400.85,-1082.36 400.85,-1082.36 611.15,-1082.36 611.15,-1082.36 617.15,-1082.36 623.15,-1088.36 623.15,-1094.36 623.15,-1094.36 623.15,-1161.77 623.15,-1161.77 623.15,-1167.77 617.15,-1173.77 611.15,-1173.77"/>
<text text-anchor="middle" x="506" y="-1152.29" font-family="Arial" font-size="12.00" fill="#14283d">&lt;&lt;execution environment&gt;&gt;</text>
<text text-anchor="middle" x="506" y="-1138.04" font-family="Arial" font-size="12.00" fill="#14283d">Frontend 0.1.0</text>
<text text-anchor="middle" x="506" y="-1123.79" font-family="Arial" font-size="12.00" fill="#14283d">Next.js 15 / React 19</text>
<text text-anchor="middle" x="506" y="-1109.54" font-family="Arial" font-size="12.00" fill="#14283d">Node.js 20 Docker image; HTTP :3000</text>
<text text-anchor="middle" x="506" y="-1095.29" font-family="Arial" font-size="12.00" fill="#14283d">Absent from production Compose</text>
</g>
<!-- browser&#45;&gt;frontend -->
<g id="edge1" class="edge">
<title>browser&#45;&gt;frontend</title>
<path fill="none" stroke="#b77925" stroke-width="1.15" stroke-dasharray="5,2" d="M506,-1281.57C506,-1254.64 506,-1214.86 506,-1182.68"/>
<polygon fill="#b77925" stroke="#b77925" stroke-width="1.15" points="508.45,-1182.99 506,-1175.99 503.55,-1182.99 508.45,-1182.99"/>
<text text-anchor="middle" x="576.12" y="-1242.27" font-family="Arial" font-size="10.00" fill="#835413">UI / REST requests; SSE back</text>
<text text-anchor="middle" x="576.12" y="-1230.27" font-family="Arial" font-size="10.00" fill="#835413">Public port + TLS not configured</text>
</g>
<!-- core -->
<g id="node3" class="node">
<title>core</title>
<path fill="#eff6ff" stroke="#7799bb" stroke-width="1.2" d="M614.15,-895.36C614.15,-895.36 397.85,-895.36 397.85,-895.36 391.85,-895.36 385.85,-889.36 385.85,-883.36 385.85,-883.36 385.85,-801.7 385.85,-801.7 385.85,-795.7 391.85,-789.7 397.85,-789.7 397.85,-789.7 614.15,-789.7 614.15,-789.7 620.15,-789.7 626.15,-795.7 626.15,-801.7 626.15,-801.7 626.15,-883.36 626.15,-883.36 626.15,-889.36 620.15,-895.36 614.15,-895.36"/>
<text text-anchor="middle" x="506" y="-873.88" font-family="Arial" font-size="12.00" fill="#14283d">&lt;&lt;container&gt;&gt; core x1</text>
<text text-anchor="middle" x="506" y="-859.63" font-family="Arial" font-size="12.00" fill="#14283d">Core API 0.1.0</text>
<text text-anchor="middle" x="506" y="-845.38" font-family="Arial" font-size="12.00" fill="#14283d">Node.js 20 / Express 4</text>
<text text-anchor="middle" x="506" y="-831.13" font-family="Arial" font-size="12.00" fill="#14283d">HTTP :4000 / SSE / WebSocket</text>
<text text-anchor="middle" x="506" y="-816.88" font-family="Arial" font-size="12.00" fill="#14283d">Auth + RBAC + rate limiting</text>
<text text-anchor="middle" x="506" y="-802.63" font-family="Arial" font-size="12.00" fill="#14283d">Audit and escalation workers in process</text>
</g>
<!-- frontend&#45;&gt;core -->
<g id="edge2" class="edge">
<title>frontend&#45;&gt;core</title>
<path fill="none" stroke="#b77925" stroke-width="1.15" stroke-dasharray="5,2" d="M506,-1082.14C506,-1034.06 506,-957.53 506,-904.15"/>
<polygon fill="#b77925" stroke="#b77925" stroke-width="1.15" points="508.45,-904.2 506,-897.2 503.55,-904.2 508.45,-904.2"/>
<text text-anchor="middle" x="572.38" y="-1042.86" font-family="Arial" font-size="10.00" fill="#835413">REST + SSE via CORE_URL</text>
<text text-anchor="middle" x="572.38" y="-1030.86" font-family="Arial" font-size="10.00" fill="#835413">Core listens on HTTP :4000</text>
<text text-anchor="middle" x="572.38" y="-1018.86" font-family="Arial" font-size="10.00" fill="#835413">Production ingress unresolved</text>
</g>
<!-- ingestion_api -->
<g id="node4" class="node">
<title>ingestion_api</title>
<path fill="#eff6ff" stroke="#7799bb" stroke-width="1.2" d="M208.4,-695.95C208.4,-695.95 35.6,-695.95 35.6,-695.95 29.6,-695.95 23.6,-689.95 23.6,-683.95 23.6,-683.95 23.6,-616.54 23.6,-616.54 23.6,-610.54 29.6,-604.54 35.6,-604.54 35.6,-604.54 208.4,-604.54 208.4,-604.54 214.4,-604.54 220.4,-610.54 220.4,-616.54 220.4,-616.54 220.4,-683.95 220.4,-683.95 220.4,-689.95 214.4,-695.95 208.4,-695.95"/>
<text text-anchor="middle" x="122" y="-674.47" font-family="Arial" font-size="12.00" fill="#14283d">&lt;&lt;container&gt;&gt; ingestion&#45;api x1</text>
<text text-anchor="middle" x="122" y="-660.22" font-family="Arial" font-size="12.00" fill="#14283d">Ingestion API 1.0.0</text>
<text text-anchor="middle" x="122" y="-645.97" font-family="Arial" font-size="12.00" fill="#14283d">Python 3.11 / FastAPI</text>
<text text-anchor="middle" x="122" y="-631.72" font-family="Arial" font-size="12.00" fill="#14283d">HTTP :8000</text>
<text text-anchor="middle" x="122" y="-617.47" font-family="Arial" font-size="12.00" fill="#14283d">Validate and enqueue telemetry</text>
</g>
<!-- core&#45;&gt;ingestion_api -->
<g id="edge3" class="edge">
<title>core&#45;&gt;ingestion_api</title>
<path fill="none" stroke="#567c9f" stroke-width="1.15" d="M385.5,-818.04C313.49,-802.35 230.25,-780.79 199.75,-759.7 179.13,-745.44 162.05,-723.86 149.2,-703.69"/>
<polygon fill="#567c9f" stroke="#567c9f" stroke-width="1.15" points="151.34,-702.49 145.58,-697.82 147.17,-705.06 151.34,-702.49"/>
<text text-anchor="middle" x="241.38" y="-750.2" font-family="Arial" font-size="10.00" fill="#254f73">HTTP :8000 / sync</text>
<text text-anchor="middle" x="241.38" y="-738.2" font-family="Arial" font-size="10.00" fill="#254f73">Provision building</text>
</g>
<!-- analytics -->
<g id="node5" class="node">
<title>analytics</title>
<path fill="#eff6ff" stroke="#7799bb" stroke-width="1.2" d="M722.02,-695.95C722.02,-695.95 501.98,-695.95 501.98,-695.95 495.98,-695.95 489.98,-689.95 489.98,-683.95 489.98,-683.95 489.98,-616.54 489.98,-616.54 489.98,-610.54 495.98,-604.54 501.98,-604.54 501.98,-604.54 722.02,-604.54 722.02,-604.54 728.02,-604.54 734.02,-610.54 734.02,-616.54 734.02,-616.54 734.02,-683.95 734.02,-683.95 734.02,-689.95 728.02,-695.95 722.02,-695.95"/>
<text text-anchor="middle" x="612" y="-674.47" font-family="Arial" font-size="12.00" fill="#14283d">&lt;&lt;container&gt;&gt; analytics x1</text>
<text text-anchor="middle" x="612" y="-660.22" font-family="Arial" font-size="12.00" fill="#14283d">Analytics API 1.0.0</text>
<text text-anchor="middle" x="612" y="-645.97" font-family="Arial" font-size="12.00" fill="#14283d">Python 3.11 / FastAPI</text>
<text text-anchor="middle" x="612" y="-631.72" font-family="Arial" font-size="12.00" fill="#14283d">HTTP :5001</text>
<text text-anchor="middle" x="612" y="-617.47" font-family="Arial" font-size="12.00" fill="#14283d">Batch scheduler not started by Compose</text>
</g>
<!-- core&#45;&gt;analytics -->
<g id="edge4" class="edge">
<title>core&#45;&gt;analytics</title>
<path fill="none" stroke="#567c9f" stroke-width="1.15" d="M535.11,-789.28C549.95,-762.63 567.96,-730.3 582.82,-703.63"/>
<polygon fill="#567c9f" stroke="#567c9f" stroke-width="1.15" points="584.81,-705.09 586.07,-697.79 580.53,-702.71 584.81,-705.09"/>
<text text-anchor="middle" x="603.8" y="-750.2" font-family="Arial" font-size="10.00" fill="#254f73">HTTP :5001 / sync</text>
<text text-anchor="middle" x="603.8" y="-738.2" font-family="Arial" font-size="10.00" fill="#254f73">Provision analytics</text>
</g>
<!-- redis -->
<g id="node9" class="node">
<title>redis</title>
<path fill="#fff4e7" stroke="#b88b58" stroke-width="1.2" d="M279.65,-509.11C279.65,-515.42 222.44,-520.54 152,-520.54 81.56,-520.54 24.35,-515.42 24.35,-509.11 24.35,-509.11 24.35,-406.27 24.35,-406.27 24.35,-399.97 81.56,-394.85 152,-394.85 222.44,-394.85 279.65,-399.97 279.65,-406.27 279.65,-406.27 279.65,-509.11 279.65,-509.11"/>
<path fill="none" stroke="#b88b58" stroke-width="1.2" d="M279.65,-509.11C279.65,-502.81 222.44,-497.69 152,-497.69 81.56,-497.69 24.35,-502.81 24.35,-509.11"/>
<text text-anchor="middle" x="152" y="-481.92" font-family="Arial" font-size="12.00" fill="#14283d">&lt;&lt;container / datastore&gt;&gt;</text>
<text text-anchor="middle" x="152" y="-467.67" font-family="Arial" font-size="12.00" fill="#14283d">Redis 7 x1 | RESP :6379</text>
<text text-anchor="middle" x="152" y="-453.42" font-family="Arial" font-size="12.00" fill="#14283d">Queues + streams + Pub/Sub + cache</text>
<text text-anchor="middle" x="152" y="-439.17" font-family="Arial" font-size="12.00" fill="#14283d">No configured replica</text>
<text text-anchor="middle" x="152" y="-424.92" font-family="Arial" font-size="12.00" fill="#14283d">No explicit volume / AOF in prod Compose</text>
</g>
<!-- core&#45;&gt;redis -->
<g id="edge10" class="edge">
<title>core&#45;&gt;redis</title>
<path fill="none" stroke="#b56b24" stroke-width="1.15" stroke-dasharray="5,2" d="M385.53,-796.67C354.32,-779.58 323.76,-756.95 303.25,-727.7 257.44,-662.35 315.34,-618.8 274,-550.54 268.36,-541.23 261.4,-532.55 253.68,-524.53"/>
<polygon fill="#b56b24" stroke="#b56b24" stroke-width="1.15" points="255.56,-522.95 248.87,-519.75 252.11,-526.42 255.56,-522.95"/>
<text text-anchor="middle" x="377.12" y="-652.74" font-family="Arial" font-size="10.00" fill="#95551d">RESP :6379</text>
<text text-anchor="middle" x="377.12" y="-640.74" font-family="Arial" font-size="10.00" fill="#95551d">Cache + thresholds; jobs / events</text>
</g>
<!-- influx -->
<g id="node10" class="node">
<title>influx</title>
<path fill="#fff4e7" stroke="#b88b58" stroke-width="1.2" d="M570.65,-138.26C570.65,-144.57 520.16,-149.69 458,-149.69 395.84,-149.69 345.35,-144.57 345.35,-138.26 345.35,-138.26 345.35,-35.43 345.35,-35.43 345.35,-29.12 395.84,-24 458,-24 520.16,-24 570.65,-29.12 570.65,-35.43 570.65,-35.43 570.65,-138.26 570.65,-138.26"/>
<path fill="none" stroke="#b88b58" stroke-width="1.2" d="M570.65,-138.26C570.65,-131.96 520.16,-126.84 458,-126.84 395.84,-126.84 345.35,-131.96 345.35,-138.26"/>
<text text-anchor="middle" x="458" y="-111.07" font-family="Arial" font-size="12.00" fill="#14283d">&lt;&lt;container / datastore&gt;&gt;</text>
<text text-anchor="middle" x="458" y="-96.82" font-family="Arial" font-size="12.00" fill="#14283d">InfluxDB 2.7 x1 | HTTP :8086</text>
<text text-anchor="middle" x="458" y="-82.57" font-family="Arial" font-size="12.00" fill="#14283d">Energy telemetry</text>
<text text-anchor="middle" x="458" y="-68.32" font-family="Arial" font-size="12.00" fill="#14283d">Local volumes: influxdb_data / config</text>
<text text-anchor="middle" x="458" y="-54.07" font-family="Arial" font-size="12.00" fill="#14283d">No configured replica</text>
</g>
<!-- core&#45;&gt;influx -->
<g id="edge11" class="edge">
<title>core&#45;&gt;influx</title>
<path fill="none" stroke="#567c9f" stroke-width="1.15" d="M490.65,-789.37C485.29,-770.09 479.48,-748 475,-727.7 463.02,-673.48 476.93,-655.11 454,-604.54 434.14,-560.73 401.84,-565.87 385.75,-520.54 367.06,-467.9 379.31,-450.34 385.75,-394.85 395.33,-312.34 418.92,-219.82 436.56,-158.13"/>
<polygon fill="#567c9f" stroke="#567c9f" stroke-width="1.15" points="438.83,-159.08 438.42,-151.68 434.12,-157.73 438.83,-159.08"/>
<text text-anchor="middle" x="448.38" y="-460.19" font-family="Arial" font-size="10.00" fill="#254f73">HTTP :8086 / token</text>
<text text-anchor="middle" x="448.38" y="-448.19" font-family="Arial" font-size="10.00" fill="#254f73">Queries + alternate ingestion</text>
</g>
<!-- supabase -->
<g id="node12" class="node">
<title>supabase</title>
<path fill="#f5f1fc" stroke="#9a8bb5" stroke-width="1.2" d="M1043.9,-503.4C1043.9,-503.4 808.1,-503.4 808.1,-503.4 802.1,-503.4 796.1,-497.4 796.1,-491.4 796.1,-491.4 796.1,-423.99 796.1,-423.99 796.1,-417.99 802.1,-411.99 808.1,-411.99 808.1,-411.99 1043.9,-411.99 1043.9,-411.99 1049.9,-411.99 1055.9,-417.99 1055.9,-423.99 1055.9,-423.99 1055.9,-491.4 1055.9,-491.4 1055.9,-497.4 1049.9,-503.4 1043.9,-503.4"/>
<text text-anchor="middle" x="926" y="-481.92" font-family="Arial" font-size="12.00" fill="#14283d">&lt;&lt;managed service&gt;&gt; Supabase</text>
<text text-anchor="middle" x="926" y="-467.67" font-family="Arial" font-size="12.00" fill="#14283d">Auth + REST API | HTTPS :443</text>
<text text-anchor="middle" x="926" y="-453.42" font-family="Arial" font-size="12.00" fill="#14283d">PostgreSQL via DATABASE_URL</text>
<text text-anchor="middle" x="926" y="-439.17" font-family="Arial" font-size="12.00" fill="#14283d">SQL port / TLS mode / DB version unknown</text>
<text text-anchor="middle" x="926" y="-424.92" font-family="Arial" font-size="12.00" fill="#14283d">Users, buildings, alerts and analytics</text>
</g>
<!-- core&#45;&gt;supabase -->
<g id="edge15" class="edge">
<title>core&#45;&gt;supabase</title>
<path fill="none" stroke="#567c9f" stroke-width="1.15" d="M626.59,-826.73C746.76,-809.44 919.75,-776.78 965,-727.7 1018.9,-669.23 1013.83,-626.4 990,-550.54 985.67,-536.74 978.45,-523.21 970.39,-510.95"/>
<polygon fill="#567c9f" stroke="#567c9f" stroke-width="1.15" points="972.51,-509.72 966.54,-505.32 968.47,-512.48 972.51,-509.72"/>
<text text-anchor="middle" x="1078.76" y="-652.74" font-family="Arial" font-size="10.00" fill="#254f73">SQL / Prisma: DATABASE_URL</text>
<text text-anchor="middle" x="1078.76" y="-640.74" font-family="Arial" font-size="10.00" fill="#254f73">HTTPS :443: Auth / SDK</text>
</g>
<!-- resend -->
<g id="node13" class="node">
<title>resend</title>
<path fill="#f5f1fc" stroke="#9a8bb5" stroke-width="1.2" d="M938.4,-681.7C938.4,-681.7 777.6,-681.7 777.6,-681.7 771.6,-681.7 765.6,-675.7 765.6,-669.7 765.6,-669.7 765.6,-630.79 765.6,-630.79 765.6,-624.79 771.6,-618.79 777.6,-618.79 777.6,-618.79 938.4,-618.79 938.4,-618.79 944.4,-618.79 950.4,-624.79 950.4,-630.79 950.4,-630.79 950.4,-669.7 950.4,-669.7 950.4,-675.7 944.4,-681.7 938.4,-681.7"/>
<text text-anchor="middle" x="858" y="-660.22" font-family="Arial" font-size="12.00" fill="#14283d">&lt;&lt;external service&gt;&gt; Resend</text>
<text text-anchor="middle" x="858" y="-645.97" font-family="Arial" font-size="12.00" fill="#14283d">Contact email API</text>
<text text-anchor="middle" x="858" y="-631.72" font-family="Arial" font-size="12.00" fill="#14283d">HTTPS :443 / API key</text>
</g>
<!-- core&#45;&gt;resend -->
<g id="edge17" class="edge">
<title>core&#45;&gt;resend</title>
<path fill="none" stroke="#567c9f" stroke-width="1.15" d="M626.45,-790.12C666.22,-771.83 710.2,-750.17 749,-727.7 770.02,-715.52 792.15,-700.46 810.94,-686.93"/>
<polygon fill="#567c9f" stroke="#567c9f" stroke-width="1.15" points="812.07,-689.14 816.29,-683.05 809.19,-685.18 812.07,-689.14"/>
<text text-anchor="middle" x="779.19" y="-750.2" font-family="Arial" font-size="10.00" fill="#254f73">HTTPS :443 / API key</text>
<text text-anchor="middle" x="779.19" y="-738.2" font-family="Arial" font-size="10.00" fill="#254f73">Contact email request</text>
</g>
<!-- ingestion_api&#45;&gt;redis -->
<g id="edge6" class="edge">
<title>ingestion_api&#45;&gt;redis</title>
<path fill="none" stroke="#b56b24" stroke-width="1.15" stroke-dasharray="5,2" d="M129.11,-604.08C132.63,-581.74 136.96,-554.25 140.9,-529.21"/>
<polygon fill="#b56b24" stroke="#b56b24" stroke-width="1.15" points="143.28,-529.84 141.95,-522.55 138.44,-529.08 143.28,-529.84"/>
<text text-anchor="middle" x="201.88" y="-565.04" font-family="Arial" font-size="10.00" fill="#95551d">RESP :6379 / LPUSH</text>
<text text-anchor="middle" x="201.88" y="-553.04" font-family="Arial" font-size="10.00" fill="#95551d">ingestion_queue / async work</text>
</g>
<!-- analytics&#45;&gt;influx -->
<g id="edge12" class="edge">
<title>analytics&#45;&gt;influx</title>
<path fill="none" stroke="#567c9f" stroke-width="1.15" d="M658.59,-604.04C667.42,-594.62 676.29,-584.52 684,-574.54 733.64,-510.28 760.9,-463.15 717,-394.85 668.39,-319.23 593.18,-377.63 533,-310.85 494.95,-268.63 476.11,-206.42 466.83,-158.43"/>
<polygon fill="#567c9f" stroke="#567c9f" stroke-width="1.15" points="469.26,-158.09 465.58,-151.66 464.44,-158.99 469.26,-158.09"/>
<text text-anchor="middle" x="744.05" y="-355.35" font-family="Arial" font-size="10.00" fill="#254f73">HTTP :8086 / token</text>
<text text-anchor="middle" x="744.05" y="-343.35" font-family="Arial" font-size="10.00" fill="#254f73">Queries + bootstrap writes</text>
</g>
<!-- mlflow -->
<g id="node11" class="node">
<title>mlflow</title>
<path fill="#fff4e7" stroke="#b88b58" stroke-width="1.2" d="M690.27,-496.27C690.27,-496.27 537.73,-496.27 537.73,-496.27 531.73,-496.27 525.73,-490.27 525.73,-484.27 525.73,-484.27 525.73,-431.11 525.73,-431.11 525.73,-425.11 531.73,-419.11 537.73,-419.11 537.73,-419.11 690.27,-419.11 690.27,-419.11 696.27,-419.11 702.27,-425.11 702.27,-431.11 702.27,-431.11 702.27,-484.27 702.27,-484.27 702.27,-490.27 696.27,-496.27 690.27,-496.27"/>
<text text-anchor="middle" x="614" y="-474.79" font-family="Arial" font-size="12.00" fill="#14283d">&lt;&lt;container&gt;&gt; mlflow x1</text>
<text text-anchor="middle" x="614" y="-460.54" font-family="Arial" font-size="12.00" fill="#14283d">MLflow 2.12.1 | HTTP :5000</text>
<text text-anchor="middle" x="614" y="-446.29" font-family="Arial" font-size="12.00" fill="#14283d">SQLite + model artifacts</text>
<text text-anchor="middle" x="614" y="-432.04" font-family="Arial" font-size="12.00" fill="#14283d">Local volume: mlflow_data</text>
</g>
<!-- analytics&#45;&gt;mlflow -->
<g id="edge13" class="edge">
<title>analytics&#45;&gt;mlflow</title>
<path fill="none" stroke="#567c9f" stroke-width="1.15" d="M612.47,-604.08C612.79,-574.24 613.2,-535.21 613.51,-505.11"/>
<polygon fill="#567c9f" stroke="#567c9f" stroke-width="1.15" points="615.96,-505.24 613.59,-498.21 611.06,-505.19 615.96,-505.24"/>
<text text-anchor="middle" x="644.88" y="-565.04" font-family="Arial" font-size="10.00" fill="#254f73">HTTP :5000</text>
<text text-anchor="middle" x="644.88" y="-553.04" font-family="Arial" font-size="10.00" fill="#254f73">Model tracking</text>
</g>
<!-- analytics&#45;&gt;supabase -->
<g id="edge16" class="edge">
<title>analytics&#45;&gt;supabase</title>
<path fill="none" stroke="#567c9f" stroke-width="1.15" d="M691.05,-604.04C707.61,-594.41 724.93,-584.22 741,-574.54 776.31,-553.27 815.01,-529.16 847.85,-508.46"/>
<polygon fill="#567c9f" stroke="#567c9f" stroke-width="1.15" points="849.11,-510.56 853.72,-504.76 846.5,-506.42 849.11,-510.56"/>
<text text-anchor="middle" x="838.55" y="-565.04" font-family="Arial" font-size="10.00" fill="#254f73">HTTPS :443 / service key</text>
<text text-anchor="middle" x="838.55" y="-553.04" font-family="Arial" font-size="10.00" fill="#254f73">Metadata + analytics results</text>
</g>
<!-- worker -->
<g id="node6" class="node">
<title>worker</title>
<path fill="#eefaf5" stroke="#76a892" stroke-width="1.2" d="M347.02,-310.85C347.02,-310.85 168.97,-310.85 168.97,-310.85 162.97,-310.85 156.97,-304.85 156.97,-298.85 156.97,-298.85 156.97,-245.69 156.97,-245.69 156.97,-239.69 162.97,-233.69 168.97,-233.69 168.97,-233.69 347.02,-233.69 347.02,-233.69 353.02,-233.69 359.02,-239.69 359.02,-245.69 359.02,-245.69 359.02,-298.85 359.02,-298.85 359.02,-304.85 353.02,-310.85 347.02,-310.85"/>
<text text-anchor="middle" x="258" y="-289.37" font-family="Arial" font-size="12.00" fill="#14283d">&lt;&lt;container&gt;&gt; ingestion x1</text>
<text text-anchor="middle" x="258" y="-275.12" font-family="Arial" font-size="12.00" fill="#14283d">Telemetry queue worker</text>
<text text-anchor="middle" x="258" y="-260.87" font-family="Arial" font-size="12.00" fill="#14283d">Python 3.11</text>
<text text-anchor="middle" x="258" y="-246.62" font-family="Arial" font-size="12.00" fill="#14283d">Influx writes + anomaly detection</text>
</g>
<!-- worker&#45;&gt;redis -->
<g id="edge9" class="edge">
<title>worker&#45;&gt;redis</title>
<path fill="none" stroke="#b56b24" stroke-width="1.15" stroke-dasharray="5,2" d="M241.23,-311.33C233.48,-328.04 223.83,-347.71 214,-364.85 209.71,-372.32 205.03,-379.99 200.21,-387.56"/>
<polygon fill="#b56b24" stroke="#b56b24" stroke-width="1.15" points="198.44,-385.8 196.71,-393.01 202.56,-388.45 198.44,-385.8"/>
<text text-anchor="middle" x="298.3" y="-355.35" font-family="Arial" font-size="10.00" fill="#95551d">RESP :6379 / async</text>
<text text-anchor="middle" x="298.3" y="-343.35" font-family="Arial" font-size="10.00" fill="#95551d">Anomaly Pub/Sub + audit stream</text>
</g>
<!-- worker&#45;&gt;influx -->
<g id="edge8" class="edge">
<title>worker&#45;&gt;influx</title>
<path fill="none" stroke="#567c9f" stroke-width="1.15" d="M271.57,-233.54C279.31,-215.74 290.37,-195.08 304.75,-179.69 314.84,-168.88 326.49,-158.92 338.77,-149.85"/>
<polygon fill="#567c9f" stroke="#567c9f" stroke-width="1.15" points="339.98,-152 344.23,-145.93 337.12,-148.02 339.98,-152"/>
<text text-anchor="middle" x="347.88" y="-194.19" font-family="Arial" font-size="10.00" fill="#254f73">HTTP :8086 / token</text>
<text text-anchor="middle" x="347.88" y="-182.19" font-family="Arial" font-size="10.00" fill="#254f73">Synchronous writes</text>
</g>
<!-- emulator -->
<g id="node7" class="node">
<title>emulator</title>
<path fill="#eefaf5" stroke="#76a892" stroke-width="1.2" d="M235.53,-881.11C235.53,-881.11 36.47,-881.11 36.47,-881.11 30.47,-881.11 24.47,-875.11 24.47,-869.11 24.47,-869.11 24.47,-815.95 24.47,-815.95 24.47,-809.95 30.47,-803.95 36.47,-803.95 36.47,-803.95 235.53,-803.95 235.53,-803.95 241.53,-803.95 247.53,-809.95 247.53,-815.95 247.53,-815.95 247.53,-869.11 247.53,-869.11 247.53,-875.11 241.53,-881.11 235.53,-881.11"/>
<text text-anchor="middle" x="136" y="-859.63" font-family="Arial" font-size="12.00" fill="#14283d">&lt;&lt;container&gt;&gt; sensor&#45;emulator x1</text>
<text text-anchor="middle" x="136" y="-845.38" font-family="Arial" font-size="12.00" fill="#14283d">Python 3.11</text>
<text text-anchor="middle" x="136" y="-831.13" font-family="Arial" font-size="12.00" fill="#14283d">Generates synthetic sensor readings</text>
<text text-anchor="middle" x="136" y="-816.88" font-family="Arial" font-size="12.00" fill="#14283d">Not a physical device</text>
</g>
<!-- emulator&#45;&gt;ingestion_api -->
<g id="edge5" class="edge">
<title>emulator&#45;&gt;ingestion_api</title>
<path fill="none" stroke="#567c9f" stroke-width="1.15" d="M84.24,-803.83C71.15,-791.4 58.82,-776.41 51.75,-759.7 43.5,-740.18 50.9,-720.3 63.53,-702.98"/>
<polygon fill="#567c9f" stroke="#567c9f" stroke-width="1.15" points="65.36,-704.62 67.74,-697.6 61.5,-701.6 65.36,-704.62"/>
<text text-anchor="middle" x="108.38" y="-750.2" font-family="Arial" font-size="10.00" fill="#254f73">HTTP :8000 / sync POST</text>
<text text-anchor="middle" x="108.38" y="-738.2" font-family="Arial" font-size="10.00" fill="#254f73">/api/telemetry/ingest</text>
</g>
<!-- seeder -->
<g id="node8" class="node">
<title>seeder</title>
<path fill="#eefaf5" stroke="#76a892" stroke-width="1.2" d="M721.77,-310.85C721.77,-310.85 560.23,-310.85 560.23,-310.85 554.23,-310.85 548.23,-304.85 548.23,-298.85 548.23,-298.85 548.23,-245.69 548.23,-245.69 548.23,-239.69 554.23,-233.69 560.23,-233.69 560.23,-233.69 721.77,-233.69 721.77,-233.69 727.77,-233.69 733.77,-239.69 733.77,-245.69 733.77,-245.69 733.77,-298.85 733.77,-298.85 733.77,-304.85 727.77,-310.85 721.77,-310.85"/>
<text text-anchor="middle" x="641" y="-289.37" font-family="Arial" font-size="12.00" fill="#14283d">&lt;&lt;container&gt;&gt; seeder</text>
<text text-anchor="middle" x="641" y="-275.12" font-family="Arial" font-size="12.00" fill="#14283d">One&#45;shot bootstrap job</text>
<text text-anchor="middle" x="641" y="-260.87" font-family="Arial" font-size="12.00" fill="#14283d">Python 3.11</text>
<text text-anchor="middle" x="641" y="-246.62" font-family="Arial" font-size="12.00" fill="#14283d">Emulator waits for completion</text>
</g>
<!-- seeder&#45;&gt;influx -->
<g id="edge14" class="edge">
<title>seeder&#45;&gt;influx</title>
<path fill="none" stroke="#567c9f" stroke-width="1.15" d="M603.08,-233.26C580.79,-210.92 551.96,-182.02 525.87,-155.87"/>
<polygon fill="#567c9f" stroke="#567c9f" stroke-width="1.15" points="527.91,-154.45 521.23,-151.22 524.44,-157.91 527.91,-154.45"/>
<text text-anchor="middle" x="614.4" y="-194.19" font-family="Arial" font-size="10.00" fill="#254f73">HTTP :8086 / token</text>
<text text-anchor="middle" x="614.4" y="-182.19" font-family="Arial" font-size="10.00" fill="#254f73">Seed telemetry</text>
</g>
<!-- redis&#45;&gt;worker -->
<g id="edge7" class="edge">
<title>redis&#45;&gt;worker</title>
<path fill="none" stroke="#b56b24" stroke-width="1.15" stroke-dasharray="5,2" d="M61.07,-396.37C45.65,-378.94 38.44,-359.57 52,-340.85 74.48,-309.82 111.65,-292.78 148.28,-283.51"/>
<polygon fill="#b56b24" stroke="#b56b24" stroke-width="1.15" points="148.64,-285.95 154.89,-281.94 147.51,-281.18 148.64,-285.95"/>
<text text-anchor="middle" x="131.5" y="-355.35" font-family="Arial" font-size="10.00" fill="#95551d">RESP :6379 / BRPOP</text>
<text text-anchor="middle" x="131.5" y="-343.35" font-family="Arial" font-size="10.00" fill="#95551d">Destructive dequeue; no ACK/replay</text>
</g>
</g>
</svg>
